Coordinates
version=1
nRows=7
nColumns=40
inDegrees=yes

Units are S.I. units (second, meters, Newtons, ...)
If the header above contains a line with 'inDegrees', this indicates whether rotational values are in degrees (yes) or radians (no).

endheader
time	pelvis_tilt	pelvis_list	pelvis_rotation	pelvis_tx	pelvis_ty	pelvis_tz	hip_flexion_r	hip_adduction_r	hip_rotation_r	knee_angle_r	knee_angle_r_beta	ankle_angle_r	subtalar_angle_r	mtp_angle_r	hip_flexion_l	hip_adduction_l	hip_rotation_l	knee_angle_l	knee_angle_l_beta	ankle_angle_l	subtalar_angle_l	mtp_angle_l	lumbar_extension	lumbar_bending	lumbar_rotation	arm_flex_r	arm_add_r	arm_rot_r	elbow_flex_r	pro_sup_r	wrist_flex_r	wrist_dev_r	arm_flex_l	arm_add_l	arm_rot_l	elbow_flex_l	pro_sup_l	wrist_flex_l	wrist_dev_l
      0.33000000	     -0.39344979	      0.75153555	      2.95178364	     -0.77999714	      0.84647905	      0.26829662	      2.92302350	      3.56269192	     -2.20551543	     15.20563514	      0.26538840	      6.34310096	      0.00000000	      0.00000000	     19.42790937	     -3.26290371	     -5.78949310	     57.49054637	      1.00339932	      4.89530545	      0.00000000	      0.00000000	    -11.71369577	     -0.66049345	     -2.43138201	     -3.25333847	     -3.35638661	     -4.42238722	     39.20878835	     88.92603766	      3.85240202	     14.66695179	    -11.44572257	     -3.16394209	    -10.11753075	     48.68318096	     89.31052477	      4.44693397	     21.33600101
      0.34000000	     -0.58524985	      0.86164875	      2.85728772	     -0.76827797	      0.84581756	      0.26780152	      1.91384002	      3.50034884	     -2.13197737	     14.59938051	      0.25480726	      6.80318352	      0.00000000	      0.00000000	     20.81729517	     -2.75839507	     -5.64810258	     55.30487741	      0.96525220	      5.24432566	      0.00000000	      0.00000000	    -11.65051943	     -0.79889387	     -2.09647986	     -2.93121494	     -3.45533966	     -4.47787187	     39.68068685	     88.91331501	      3.72219338	     14.41927056	    -11.59311165	     -3.19086065	    -10.27951142	     48.49327591	     89.31481955	      4.39709047	     21.23549932
      0.35000000	     -0.84564506	      0.63466643	      2.74816384	     -0.75666061	      0.84468046	      0.26739771	      1.11076266	      3.79317383	     -2.06858121	     14.20598301	      0.24794118	      7.19020368	      0.00000000	      0.00000000	     22.23856038	     -2.63551968	     -5.43760186	     52.94561026	      0.92407522	      5.29597395	      0.00000000	      0.00000000	    -11.50677247	     -0.58846761	     -1.72661153	     -2.57074910	     -3.61809955	     -4.44423764	     40.16243914	     88.90805822	      3.70422529	     14.32537494	    -11.81529450	     -3.17374825	    -10.45001225	     48.48986532	     89.31555305	      4.33685809	     21.19052179
      0.36000000	     -0.73508365	      1.12123692	      2.36041783	     -0.74444831	      0.84428682	      0.26710626	     -0.32131018	      3.32094985	     -1.68992986	     13.46425463	      0.23499557	      7.74984221	      0.00000000	      0.00000000	     22.74032730	     -1.86678216	     -5.89084592	     49.79787297	      0.86913684	      5.49964410	      0.00000000	      0.00000000	    -11.72873347	     -1.15009689	     -1.05658912	     -2.34301276	     -3.74622490	     -4.50822023	     40.65913650	     88.88162511	      3.60372372	     14.11744082	    -11.82780121	     -3.14435606	    -10.71446094	     48.09742242	     89.31987655	      4.05793242	     20.69823912
      0.37000000	     -0.79850058	      1.22249166	      1.95585326	     -0.73237198	      0.84317913	      0.26687457	     -1.46234694	      3.24154486	     -1.39423244	     12.89502090	      0.22506057	      8.19257423	      0.00000000	      0.00000000	     23.45450367	     -1.49003225	     -6.09155361	     46.60121042	      0.81334456	      5.54123146	      0.00000000	      0.00000000	    -11.72252578	     -1.30948815	     -0.38813107	     -2.09876386	     -3.94985492	     -4.46215064	     41.25388514	     88.86112413	      3.58425769	     14.00069606	    -11.93346236	     -3.05138920	    -11.02193843	     47.80970134	     89.32073276	      3.69661483	     20.26860160
      0.38000000	     -0.88244224	      1.29491717	      1.59436310	     -0.72032892	      0.84185634	      0.26647575	     -2.52657556	      3.16549055	     -1.09776504	     12.41727659	      0.21672236	      8.64406243	      0.00000000	      0.00000000	     24.05142823	     -1.13934067	     -6.29740283	     43.12315420	      0.75264102	      5.55110143	      0.00000000	      0.00000000	    -11.70988970	     -1.44270381	      0.30082794	     -1.87631745	     -4.18674575	     -4.37845852	     41.81106091	     88.84262472	      3.60976648	     13.93785655	    -11.98341937	     -2.91178170	    -11.38080318	     47.52857005	     89.31882090	      3.30411668	     19.85630762
      0.39000000	     -0.60227146	      1.54565653	      0.95381896	     -0.70811603	      0.84105919	      0.26654185	     -3.95115978	      2.87787679	     -0.58793588	     12.03504071	      0.21005109	      9.17221862	      0.00000000	      0.00000000	     23.96610510	     -0.77645485	     -7.01416788	     39.19955130	      0.68416124	      5.29030387	      0.00000000	      0.00000000	    -12.11652496	     -1.80391410	      1.22446565	     -1.62702895	     -4.39803180	     -4.40912002	     42.39760419	     88.82885303	      3.67429036	     13.88828412	    -12.02802753	     -2.83765350	    -11.47385942	     47.33286350	     89.31134042	      2.48416404	     18.85995611
